<svg width="24" height="24" viewBox="0 0 24 24" fill="none" xmlns="http://www.w3.org/2000/svg">
<path d="M19 14.9007V9.0993C18.9997 8.80112 18.9277 8.50827 18.7912 8.25012C18.6547 7.99196 18.4585 7.77759 18.2222 7.6285L12.7778 4.2278C12.5413 4.07857 12.2731 4 12 4C11.7269 4 11.4587 4.07857 11.2222 4.2278L5.77778 7.6285C5.54154 7.77759 5.34532 7.99196 5.2088 8.25012C5.07229 8.50827 5.00028 8.80112 5 9.0993V14.9007C5.00028 15.1989 5.07229 15.4917 5.2088 15.7499C5.34532 16.008 5.54154 16.2224 5.77778 16.3715L11.2222 19.7722C11.4587 19.9214 11.7269 20 12 20C12.2731 20 12.5413 19.9214 12.7778 19.7722L18.2222 16.3715C18.4585 16.2224 18.6547 16.008 18.7912 15.7499C18.9277 15.4917 18.9997 15.1989 19 14.9007Z" stroke="black" stroke-width="1.6" stroke-linecap="round"/>
<path d="M12 15C13.6569 15 15 13.6569 15 12C15 10.3431 13.6569 9 12 9C10.3431 9 9 10.3431 9 12C9 13.6569 10.3431 15 12 15Z" stroke="black" stroke-width="1.6" stroke-linecap="round"/>
</svg>
