<svg width="24" height="24" viewBox="0 0 24 24" fill="none" xmlns="http://www.w3.org/2000/svg">
<path d="M11.2138 4.65296C11.2481 4.46949 11.3454 4.30378 11.489 4.18453C11.6326 4.06528 11.8134 4 12 4C12.1866 4 12.3674 4.06528 12.511 4.18453C12.6546 4.30378 12.7519 4.46949 12.7862 4.65296L13.6268 9.0983C13.6865 9.41434 13.8401 9.70504 14.0675 9.93247C14.295 10.1599 14.5857 10.3135 14.9017 10.3732L19.347 11.2138C19.5305 11.2481 19.6962 11.3454 19.8155 11.489C19.9347 11.6326 20 11.8134 20 12C20 12.1866 19.9347 12.3674 19.8155 12.511C19.6962 12.6546 19.5305 12.7519 19.347 12.7862L14.9017 13.6268C14.5857 13.6865 14.295 13.8401 14.0675 14.0675C13.8401 14.295 13.6865 14.5857 13.6268 14.9017L12.7862 19.347C12.7519 19.5305 12.6546 19.6962 12.511 19.8155C12.3674 19.9347 12.1866 20 12 20C11.8134 20 11.6326 19.9347 11.489 19.8155C11.3454 19.6962 11.2481 19.5305 11.2138 19.347L10.3732 14.9017C10.3135 14.5857 10.1599 14.295 9.93247 14.0675C9.70504 13.8401 9.41434 13.6865 9.0983 13.6268L4.65296 12.7862C4.46949 12.7519 4.30378 12.6546 4.18453 12.511C4.06528 12.3674 4 12.1866 4 12C4 11.8134 4.06528 11.6326 4.18453 11.489C4.30378 11.3454 4.46949 11.2481 4.65296 11.2138L9.0983 10.3732C9.41434 10.3135 9.70504 10.1599 9.93247 9.93247C10.1599 9.70504 10.3135 9.41434 10.3732 9.0983L11.2138 4.65296Z" stroke="black" stroke-width="1.6" stroke-linecap="round"/>
</svg>
