<svg width="24" height="24" viewBox="0 0 24 24" fill="none" xmlns="http://www.w3.org/2000/svg">
<path d="M9 15H15M3 7V4C3 3.44772 3.44772 3 4 3H20C20.5523 3 21 3.44772 21 4V7" stroke="black" stroke-width="1.6" stroke-linecap="round"/>
<path d="M17 16V10C17 9.44772 17.4477 9 18 9H22C22.5523 9 23 9.44772 23 10V20C23 20.5523 22.5523 21 22 21" stroke="black" stroke-width="1.6" stroke-linecap="round"/>
<path d="M18.5 18C19.3284 18 20 18.6716 20 19.5C20 20.3284 19.3284 21 18.5 21L5.5 21C4.67157 21 4 20.3284 4 19.5C4 18.6716 4.67157 18 5.5 18L18.5 18Z" stroke="black" stroke-width="1.6" stroke-linecap="round"/>
<path d="M7 16V10C7 9.44772 6.55228 9 6 9H2C1.44772 9 1 9.44772 1 10V20C1 20.5523 1.44772 21 2 21" stroke="black" stroke-width="1.6" stroke-linecap="round"/>
<circle cx="4" cy="15" r="1" fill="black"/>
<circle cx="4" cy="12" r="1" fill="black"/>
<circle cx="20" cy="15" r="1" fill="black"/>
<circle cx="20" cy="12" r="1" fill="black"/>
</svg>
