<svg width="24" height="24" viewBox="0 0 24 24" fill="none" xmlns="http://www.w3.org/2000/svg">
<path d="M1.99989 17.9474L1.99989 12.6842M1.99989 17.9474L4.49988 17.9474M1.99989 17.9474L1.99989 19L4.49988 19L4.49988 17.9474M1.99989 12.6842L4.20233 9.4385C4.38844 9.16423 4.69836 9 5.02981 9L11.5 9M1.99989 12.6842L7.41655 12.6842M4.49988 17.9474L7.41655 17.9474M7.41655 12.6842L7.41655 17.9474M7.41655 12.6842L11.5 12.6842M7.41655 17.9474L11.5 17.9474" stroke="black" stroke-width="1.6" stroke-linecap="round" stroke-linejoin="round"/>
<path d="M11 15L11.5 15" stroke="black" stroke-width="1.6" stroke-linecap="round" stroke-linejoin="round"/>
<path d="M16 6.5C16.1953 6.5 16.3047 6.5 16.5 6.5" stroke="black" stroke-width="1.6" stroke-linecap="round" stroke-linejoin="round"/>
<path d="M19.5 6.5H20" stroke="black" stroke-width="1.6" stroke-linecap="round" stroke-linejoin="round"/>
<path d="M16 9C16.1953 9 16.3047 9 16.5 9" stroke="black" stroke-width="1.6" stroke-linecap="round" stroke-linejoin="round"/>
<path d="M19.5 9H20" stroke="black" stroke-width="1.6" stroke-linecap="round" stroke-linejoin="round"/>
<path d="M14 5C14 4.44772 14.4477 4 15 4H21C21.5523 4 22 4.44772 22 5V19C22 19.5523 21.5523 20 21 20H15C14.4477 20 14 19.5523 14 19V5Z" stroke="black" stroke-width="1.6" stroke-linecap="round"/>
<circle cx="18" cy="13" r="2" stroke="black" stroke-width="1.6" stroke-linecap="round" stroke-linejoin="round"/>
</svg>
