<svg width="24" height="24" viewBox="0 0 24 24" fill="none" xmlns="http://www.w3.org/2000/svg">
<path d="M12 4C16.9706 4 21 6.23858 21 9C21 11.7614 16.9706 14 12 14C7.02944 14 3 11.7614 3 9C3 6.23858 7.02944 4 12 4Z" stroke="black" stroke-width="1.6" stroke-linecap="round"/>
<path d="M9 11C9 9.89543 10.3431 9 12 9C13.6569 9 15 9.89543 15 11" stroke="black" stroke-width="1.6" stroke-linecap="round"/>
<path d="M7 15.2422L7 18.4999C7 19.8806 9.23858 20.9999 12 20.9999C14.7614 20.9999 17 19.8806 17 18.4999L17 15.2422" stroke="black" stroke-width="1.6" stroke-linecap="round"/>
<path d="M5.5 12.5L7 14.4999C7 15.8806 9.23858 16.9999 12 16.9999C14.7614 16.9999 17 15.8806 17 14.4999L18.5 12.5" stroke="black" stroke-width="1.6" stroke-linecap="round"/>
</svg>
